<svg xmlns="http://www.w3.org/2000/svg" version="1.1" xmlns:xlink="http://www.w3.org/1999/xlink" xmlns:svgjs="http://svgjs.dev/svgjs" width="1500" height="1500" viewBox="0 0 1500 1500"><rect width="1500" height="1500" fill="#000000"></rect><g transform="matrix(0.6666666666666666,0,0,0.6666666666666666,249.48690263706845,433.59036538412647)"><svg viewBox="0 0 390 247" data-background-color="#ffffff" preserveAspectRatio="xMidYMid meet" height="950" width="1500" xmlns="http://www.w3.org/2000/svg" xmlns:xlink="http://www.w3.org/1999/xlink"><g id="tight-bounds" transform="matrix(1,0,0,1,0.20010797154330362,-0.10024249980929767)"><svg viewBox="0 0 389.5997840569134 247.2" height="247.2" width="389.5997840569134"><g><svg viewBox="0 0 395.52 250.95636086317035" height="247.2" width="389.5997840569134"><g><svg viewBox="0 0 395.52 250.95636086317035" height="250.95636086317035" width="395.52"><g id="textblocktransform"><svg viewBox="0 0 395.52 250.95636086317035" height="250.95636086317035" width="395.52" id="textblock"><g><svg viewBox="0 0 395.52 109.44647919010126" height="109.44647919010126" width="395.52"><g transform="matrix(1,0,0,1,0,0)"><svg width="395.52" viewBox="0.75 -32.05 133.34 36.9" height="109.44647919010126" data-palette-color="#6575a8"><path d="M14.65-11.6L14.6-9.35 14.7 0 10.75 0 10.95-9.35 10.9-11.45 0.75-32.05 5.05-32.05 5.7-30.25 12.7-15.85 13.05-15.85 20.75-30.15 21.5-32.05 25.7-32.05 14.65-11.6ZM39.15-24.9L47.9 0 44.15 0 43.55-2.7 42.25-6.4 36.3-6.45 31-6.4 29.65-2.9 28.95 0 25.25 0 34.85-24.9 39.15-24.9ZM36.6-9.4L41.2-9.45 37.05-21.25 36.75-21.25 32.2-9.45 36.6-9.4ZM66.89-24.9L67.09-24.6 66.84-21.45 62.2-21.8 59.7-21.8 59.55-7.8 59.7 0 55.95 0 56.09-7.5 55.99-21.8 53.49-21.8 48.74-21.45 48.45-21.8 48.74-24.9 66.89-24.9ZM89.74-24.95L89.74-22.15 75.19-2.95 85.64-2.95 89.79-3.35 89.99-3.1 89.69 0.1 84.54 0 73.24 0 70.69 0.1 70.69-2.6 85.29-21.9 75.14-21.9 71.29-21.5 71.09-21.8 71.44-24.95 75.94-24.9 87.59-24.9 89.74-24.95ZM105.39-8.7L105.34-7.15 105.49 0 101.74 0 101.94-7.15 101.89-8.7 93.44-24.9 97.54-24.9 98.04-23.45 103.64-12.75 103.89-12.75 109.99-23.3 110.64-24.9 114.64-24.9 105.39-8.7ZM125.39-25.15Q128.79-25.15 130.89-23.38 132.99-21.6 132.99-18.8L132.99-18.8Q132.99-16.65 131.71-14.65 130.44-12.65 127.99-11.4L127.99-11.4 127.99-11.2Q130.99-10.5 132.54-8.8 134.09-7.1 134.09-4.55L134.09-4.55Q134.09-1.8 132.66 0.35 131.24 2.5 128.64 3.68 126.04 4.85 122.69 4.85L122.69 4.85Q120.39 4.85 117.79 4.4L117.79 4.4 117.54 1 117.84 0.75Q120.19 1.75 122.94 1.75L122.94 1.75Q126.24 1.75 128.29 0.18 130.34-1.4 130.34-4.05L130.34-4.05Q130.34-6.4 128.66-7.75 126.99-9.1 123.89-9.2L123.89-9.2 120.94-9.2 120.69-9.5 120.79-12.25 122.99-12.3Q124.34-12.3 125.74-13.05 127.14-13.8 128.06-15.1 128.99-16.4 128.99-17.95L128.99-17.95Q128.99-19.75 127.79-20.8 126.59-21.85 124.64-21.85L124.64-21.85Q123.09-21.85 121.61-21.13 120.14-20.4 118.44-18.9L118.44-18.9 117.99-18.9 117.39-22.05Q121.14-25.15 125.39-25.15L125.39-25.15Z" opacity="1" transform="matrix(1,0,0,1,0,0)" fill="#ffffff" class="wordmark-text-0" data-fill-palette-color="primary" id="text-0"></path></svg></g></svg></g><g transform="matrix(1,0,0,1,0,161.12185323266596)"><svg viewBox="0 0 395.52 89.83450763050439" height="89.83450763050439" width="395.52"><path d="M395.52 0l-14.972 44.917 14.972 44.918h-395.52l14.972-44.918-14.972-44.917z" data-fill-palette-color="tertiary" opacity="1" fill="#ffffff"></path><g transform="matrix(1,0,0,1,75.54431999999998,25.837687021282346)"><svg width="244.43136" viewBox="4.49 -35.01 291.48 45.51" height="38.1591335879397" data-palette-color="#ffffff"><path d="M4.49-35.01L9.5-35.01 9.5-5 27.49-5 27.49 0 4.49 0 4.49-35.01ZM55-21.19L55-10.55 37.79-10.55 37.79-4.81 55-4.81 55 0 37.79 0Q36.81 0 35.94-0.38 35.06-0.76 34.41-1.4 33.76-2.05 33.38-2.93 33.01-3.81 33.01-4.81L33.01-4.81 33.01-21.19Q33.01-22.19 33.38-23.07 33.76-23.95 34.41-24.6 35.06-25.24 35.94-25.62 36.81-26 37.79-26L37.79-26 50.19-26Q51.19-26 52.07-25.62 52.95-25.24 53.6-24.6 54.25-23.95 54.62-23.07 55-22.19 55-21.19L55-21.19ZM50.19-21.19L37.79-21.19 37.79-15.36 50.19-15.36 50.19-21.19ZM61.49-21.19L61.49-26 67.84-26 67.84-34.01 72.65-34.01 72.65-26 81.2-26 81.2-21.19 72.65-21.19 72.65-4.81 81.2-4.81 81.2 0 72.65 0Q71.67 0 70.8-0.38 69.92-0.76 69.26-1.4 68.6-2.05 68.22-2.93 67.84-3.81 67.84-4.81L67.84-4.81 67.84-21.19 61.49-21.19ZM95.7-29.71L94.11-18.6 90.79-18.6 89.2-29.71 89.2-35.01 95.7-35.01 95.7-29.71ZM103.19-4.81L119.4-4.81 119.4-10.84 108-10.84Q107-10.84 106.12-11.22 105.24-11.6 104.59-12.24 103.95-12.89 103.57-13.77 103.19-14.65 103.19-15.65L103.19-15.65 103.19-21.19Q103.19-22.19 103.57-23.07 103.95-23.95 104.59-24.6 105.24-25.24 106.12-25.62 107-26 108-26L108-26 123.21-26 123.21-21.19 108-21.19 108-15.65 119.4-15.65Q120.4-15.65 121.27-15.27 122.13-14.89 122.79-14.25 123.45-13.6 123.83-12.72 124.21-11.84 124.21-10.84L124.21-10.84 124.21-4.81Q124.21-3.81 123.83-2.93 123.45-2.05 122.79-1.4 122.13-0.76 121.27-0.38 120.4 0 119.4 0L119.4 0 103.19 0 103.19-4.81ZM143.69-35.01L149.5-35.01 159.68-18.65 169.88-35.01 175.69-35.01 162.19-13.89 162.19 0 157.19 0 157.19-13.89 143.69-35.01ZM177.69-4.81L177.69-11.35Q177.69-12.35 178.07-13.22 178.45-14.09 179.1-14.75 179.74-15.41 180.62-15.78 181.5-16.16 182.48-16.16L182.48-16.16 194.88-16.16 194.88-21.19 179.18-21.19 179.18-26 194.88-26Q195.88-26 196.76-25.62 197.64-25.24 198.29-24.6 198.93-23.95 199.31-23.07 199.69-22.19 199.69-21.19L199.69-21.19 199.69 0 194.88 0 194.88-4.39Q194.81-3.49 194.39-2.69 193.98-1.88 193.33-1.28 192.68-0.68 191.85-0.34 191.02 0 190.09 0L190.09 0 182.48 0Q181.5 0 180.62-0.38 179.74-0.76 179.1-1.4 178.45-2.05 178.07-2.93 177.69-3.81 177.69-4.81L177.69-4.81ZM182.48-11.35L182.48-4.81 194.88-4.81 194.88-11.35 182.48-11.35ZM206.18-21.19L206.18-26 212.53-26 212.53-34.01 217.34-34.01 217.34-26 225.88-26 225.88-21.19 217.34-21.19 217.34-4.81 225.88-4.81 225.88 0 217.34 0Q216.36 0 215.48-0.38 214.6-0.76 213.94-1.4 213.29-2.05 212.91-2.93 212.53-3.81 212.53-4.81L212.53-4.81 212.53-21.19 206.18-21.19ZM233.38-21.19L233.38-26 254.88-26 254.88-24.71 241.04-4.81 254.88-4.81 254.88 0 232.89 0 232.89-1.29 246.73-21.19 233.38-21.19ZM268.43 10.5L263.65 10.5 269.09-2.34 258.89-26 263.94-26 271.53-8.11 279.13-26 284.18-26 268.43 10.5ZM293.72-12.99L290.94-12.99 288.94-35.01 295.72-35.01 293.72-12.99ZM288.67 0L288.67-7.3 295.97-7.3 295.97 0 288.67 0Z" opacity="1" transform="matrix(1,0,0,1,0,0)" fill="#000000" class="slogan-text-1" data-fill-palette-color="quaternary" id="text-1"></path></svg></g></svg></g></svg></g></svg></g></svg></g><defs></defs></svg><rect width="389.5997840569134" height="247.2" fill="none" stroke="none" visibility="hidden"></rect></g></svg></g></svg>